<?xml version="1.0" encoding="UTF-8" standalone="no"?>
<!DOCTYPE svg PUBLIC "-//W3C//DTD SVG 1.1//EN" "http://www.w3.org/Graphics/SVG/1.1/DTD/svg11.dtd">
<svg width="100%" height="100%" viewBox="0 0 800 800" version="1.1" xmlns="http://www.w3.org/2000/svg" xmlns:xlink="http://www.w3.org/1999/xlink" xml:space="preserve" xmlns:serif="http://www.serif.com/" style="fill-rule:evenodd;clip-rule:evenodd;stroke-linejoin:round;stroke-miterlimit:2;">
    <g id="Layer1">
        <circle cx="400" cy="400" r="400"/>
    </g>
    <g id="Layer2">
        <g transform="matrix(6.2433e-17,1.01961,-1.6153,9.89083e-17,1285.46,252.667)">
            <path d="M170,350C141.852,350 119,436.704 119,543.5C119,650.296 141.852,737 170,737C161.556,691.85 154.7,620.689 154.7,543.5C154.7,466.311 161.556,395.15 170,350Z" style="fill:white;"/>
        </g>
        <g transform="matrix(1,0,0,1,-96,27.2109)">
            <path d="M243.798,207.519C243.798,198.826 240.43,192.741 233.693,189.264C226.956,185.787 214.895,182.527 197.509,179.485C194.467,178.616 192.62,177.42 191.968,175.899C191.316,174.378 190.99,171.879 190.99,168.402C190.99,165.794 191.425,162.317 192.294,157.97C206.637,158.84 220.545,159.6 234.019,160.252C247.493,160.904 260.314,161.23 272.484,161.23L401.571,161.23C418.522,161.23 434.603,160.578 449.815,159.274C465.028,157.97 475.459,157.318 481.109,157.318C486.325,157.318 490.019,160.904 492.192,168.076C494.366,175.247 496.104,183.831 497.408,193.828C498.712,203.824 500.233,214.364 501.972,225.448C503.71,236.531 506.753,246.201 511.099,254.46C509.795,256.198 508.057,257.393 505.883,258.045C503.71,258.697 501.537,259.023 499.364,259.023C494.148,259.023 490.671,257.067 488.933,253.156C483.717,241.42 478.61,231.424 473.612,223.166C468.613,214.908 462.963,208.171 456.661,202.955C450.359,197.74 442.861,193.936 434.169,191.546C425.476,189.155 414.61,187.96 401.571,187.96L305.082,187.96L305.082,540.015C305.082,548.708 310.623,554.684 321.707,557.944C332.79,561.204 346.372,563.92 362.454,566.093C367.669,566.528 370.277,570.222 370.277,577.177C370.277,580.219 369.842,583.913 368.973,588.26C359.846,587.825 350.067,587.39 339.635,586.956C330.943,586.521 320.837,586.087 309.319,585.652C297.802,585.217 285.74,585 273.136,585C261.401,585 248.144,585.326 233.367,585.978C218.589,586.63 204.898,587.39 192.294,588.26C191.425,583.913 190.99,580.436 190.99,577.829C190.99,571.309 193.163,567.832 197.509,567.397C211.852,563.92 223.153,560.552 231.411,557.292C239.669,554.032 243.798,548.056 243.798,539.363L243.798,207.519Z" style="fill:white;fill-rule:nonzero;"/>
        </g>
        <g transform="matrix(1,0,0,1,209.01,27.2109)">
            <path d="M243.798,207.519C243.798,198.826 240.43,192.741 233.693,189.264C226.956,185.787 214.895,182.527 197.509,179.485C194.467,178.616 192.62,177.42 191.968,175.899C191.316,174.378 190.99,171.879 190.99,168.402C190.99,165.794 191.425,162.317 192.294,157.97C206.637,158.84 220.545,159.6 234.019,160.252C247.493,160.904 260.314,161.23 272.484,161.23L401.571,161.23C418.522,161.23 434.603,160.578 449.815,159.274C465.028,157.97 475.459,157.318 481.109,157.318C486.325,157.318 490.019,160.904 492.192,168.076C494.366,175.247 496.104,183.831 497.408,193.828C498.712,203.824 500.233,214.364 501.972,225.448C503.71,236.531 506.753,246.201 511.099,254.46C509.795,256.198 508.057,257.393 505.883,258.045C503.71,258.697 501.537,259.023 499.364,259.023C494.148,259.023 490.671,257.067 488.933,253.156C483.717,241.42 478.61,231.424 473.612,223.166C468.613,214.908 462.963,208.171 456.661,202.955C450.359,197.74 442.861,193.936 434.169,191.546C425.476,189.155 414.61,187.96 401.571,187.96L305.082,187.96L305.082,540.015C305.082,548.708 310.623,554.684 321.707,557.944C332.79,561.204 346.372,563.92 362.454,566.093C367.669,566.528 370.277,570.222 370.277,577.177C370.277,580.219 369.842,583.913 368.973,588.26C359.846,587.825 350.067,587.39 339.635,586.956C330.943,586.521 320.837,586.087 309.319,585.652C297.802,585.217 285.74,585 273.136,585C261.401,585 248.144,585.326 233.367,585.978C218.589,586.63 204.898,587.39 192.294,588.26C191.425,583.913 190.99,580.436 190.99,577.829C190.99,571.309 193.163,567.832 197.509,567.397C211.852,563.92 223.153,560.552 231.411,557.292C239.669,554.032 243.798,548.056 243.798,539.363L243.798,207.519Z" style="fill:white;fill-rule:nonzero;"/>
        </g>
    </g>
</svg>
